<svg preserveAspectRatio="none" width="100%" height="100%" overflow="visible" style="display: block;" viewBox="0 0 15 16" fill="none" xmlns="http://www.w3.org/2000/svg">
<path id="Vector (Stroke)" fill-rule="evenodd" clip-rule="evenodd" d="M2.01075 1.63448C2.01075 0.74804 2.71348 0 3.61613 0C4.51878 0 5.22151 0.74804 5.22151 1.63448V4.73793C5.22151 6.1957 4.06866 7.4069 2.61075 7.4069C1.15285 7.4069 0 6.1957 0 4.73793V0.0827587H1.2V4.73793C1.2 5.56547 1.84764 6.2069 2.61075 6.2069C3.37386 6.2069 4.02151 5.56547 4.02151 4.73793V1.63448C4.02151 1.37827 3.82399 1.2 3.61613 1.2C3.40827 1.2 3.21075 1.37827 3.21075 1.63448V5.25517H2.01075V1.63448ZM12.6645 1.2H6.12957V0H12.6645C13.5672 0 14.2699 0.74804 14.2699 1.63448V14.0483C14.2699 14.9347 13.5672 15.6828 12.6645 15.6828H2.61075C1.7081 15.6828 1.00538 14.9347 1.00538 14.0483V8.35862H2.20538V14.0483C2.20538 14.3045 2.4029 14.4828 2.61075 14.4828H12.6645C12.8724 14.4828 13.0699 14.3045 13.0699 14.0483V1.63448C13.0699 1.37827 12.8724 1.2 12.6645 1.2ZM7.13495 4.13793H11.1565V5.33793H7.13495V4.13793ZM7.13495 7.24138H11.1565V8.44138H7.13495V7.24138ZM4.11882 10.3448H11.1565V11.5448H4.11882V10.3448Z" fill="#1F2F4D"/>
</svg>
