<svg preserveAspectRatio="none" width="100%" height="100%" overflow="visible" style="display: block;" viewBox="0 0 97 24" fill="none" xmlns="http://www.w3.org/2000/svg">
<g id="Group">
<path id="Vector" d="M32.7579 4.94623C36.8219 4.94623 39.5397 7.35438 39.7996 10.9001H34.9591C34.7007 9.9952 34.0526 9.14011 32.7851 9.14011C31.1791 9.14011 30.4555 10.6161 30.4555 12.0906C30.4555 13.5651 31.1791 15.0412 32.7851 15.0412C34.0541 15.0412 34.7007 14.1876 34.9591 13.2811H39.7996C39.5412 16.8269 36.8234 19.235 32.7579 19.235C28.2286 19.235 25.4065 16.076 25.4065 12.0906C25.4065 8.10523 28.2286 4.94623 32.7579 4.94623Z" fill="#0B172C"/>
<path id="Vector_2" d="M47.8232 4.94623C52.4054 4.94623 54.9404 7.99948 54.9404 12.219V13.0726H45.5435C45.5964 14.393 46.45 15.505 48.0015 15.505C49.2434 15.505 49.9428 14.9611 50.2284 14.3402H54.8619C54.241 17.1879 51.6772 19.2335 48.003 19.2335C43.2653 19.2335 40.5217 16.36 40.5217 12.1163C40.5217 8.13092 43.3695 4.94623 47.8202 4.94623H47.8232ZM50.0486 10.5119C49.9459 9.27003 49.195 8.46631 47.8489 8.46631C46.5028 8.46631 45.752 9.31989 45.5722 10.5119H50.0501H50.0486Z" fill="#0B172C"/>
<path id="Vector_3" d="M56.2095 5.25744H61.127V8.36357C61.3854 6.34519 62.733 5.07615 64.4915 5.07615C64.984 5.07615 65.3466 5.10183 65.6049 5.20457V10.2263C65.398 10.1735 64.984 10.1236 64.5957 10.1236C62.4731 10.1236 61.334 11.1842 61.334 13.3854V18.9238H56.2095V5.25744Z" fill="#0B172C"/>
<path id="Vector_4" d="M67.0553 0.0271773H72.1798V7.14439C72.7493 5.77261 74.0169 4.94471 76.0367 4.94471C79.7638 4.94471 82.249 8.10372 82.249 12.0891C82.249 16.0745 79.7638 19.2335 76.0367 19.2335C73.8371 19.2335 72.5937 18.3543 71.9199 17.0338V18.9238H67.0537V0.0271773H67.0553ZM74.6665 15.0412C76.2452 15.0412 77.1245 13.5651 77.1245 12.0906C77.1245 10.6161 76.2452 9.14011 74.6665 9.14011C73.0877 9.14011 72.1813 10.3306 72.1813 12.0906C72.1813 13.8507 73.1134 15.0412 74.6665 15.0412Z" fill="#0B172C"/>
<path id="Vector_5" d="M83.4924 23.7129V19.649C83.9577 19.7774 84.2946 19.8303 84.8898 19.8303C85.8477 19.8303 86.4172 19.5191 86.6756 18.8725L81.8879 5.25593H87.091L89.2907 13.1497L91.4904 5.25593H96.6934L91.8529 18.9223L91.5417 19.8288C90.6368 22.4424 89.1864 23.9955 85.899 23.9955C85.0198 23.9955 84.2175 23.8927 83.4909 23.7114L83.4924 23.7129Z" fill="#0B172C"/>
<g id="Group_2">
<path id="Vector_6" d="M20.2095 8.88027H17.7288V8.68236C17.7288 8.15208 17.2907 7.78648 16.7861 7.79101C16.2226 7.79554 15.6576 7.77137 15.0986 7.85295C14.6529 7.91791 14.1453 7.93 13.7903 8.24424C13.4277 8.56452 13.3204 9.07214 13.2071 9.60997C13.1557 9.85471 13.1029 10.107 13.0228 10.3518C12.7811 11.0996 12.2357 11.7326 11.5558 12.1042C11.1192 12.3429 10.5784 12.0619 10.4998 11.5709C11.2703 11.4471 11.9547 10.8503 12.2009 10.0874C12.2659 9.88493 12.3127 9.66587 12.3626 9.43321C12.494 8.81229 12.6421 8.10978 13.2177 7.59914C13.7162 7.158 14.2903 7.0885 14.7964 7.02656C15.0608 6.99484 15.3116 6.96462 15.5412 6.88606C16.1304 6.68513 16.6078 6.34521 16.8888 5.92975C17.0505 5.58681 17.1396 5.1925 17.1396 4.7861V3.7331C17.1396 3.69382 17.1079 3.66209 17.0686 3.66209H14.5879V3.46418C14.5879 2.96714 14.1846 2.56377 13.6875 2.56377H11.2658L11.2839 0C10.8911 0.208485 10.0934 0.705527 9.52537 1.67393C9.23681 2.16644 9.0948 2.63477 9.02077 2.99282C8.91804 3.31915 8.89991 3.71497 8.81078 4.06093C8.88782 4.16971 8.9543 4.28906 9.00566 4.41445H10.7536C11.2703 4.41445 11.6888 4.83293 11.6888 5.34962V6.40262C11.6888 6.98728 11.5166 7.53871 11.2204 8.00856C10.8367 8.57963 10.2052 9.03588 9.44076 9.29573C9.12653 9.403 8.81833 9.43925 8.52222 9.47551C8.08561 9.52839 7.70792 9.57371 7.41181 9.8381C7.04923 10.1599 6.94196 10.666 6.82865 11.2038C6.77729 11.4486 6.72441 11.7009 6.64434 11.9456C6.40262 12.6934 5.85723 13.3265 5.17739 13.6981C4.74078 13.9368 4.19992 13.6558 4.12136 13.1648C4.89185 13.0409 5.57623 12.4442 5.82248 11.6812C5.88745 11.4788 5.93428 11.2597 5.98414 11.0271C6.11557 10.4061 6.26363 9.70364 6.83923 9.193C7.33778 8.75186 7.91187 8.68236 8.41949 8.62042C8.68387 8.58869 8.93466 8.55848 9.16429 8.47992C10.1131 8.15662 10.7959 7.45713 10.7959 6.40413V5.35113C10.7959 5.31185 10.7642 5.28012 10.7249 5.28012H8.24424V5.08221C8.24424 4.58517 7.84087 4.18179 7.34382 4.18179H4.92207L4.9402 1.61803C4.5474 1.82651 3.74972 2.32356 3.18167 3.29195C2.89311 3.78446 2.7511 4.2528 2.67707 4.61085C2.54715 5.02178 2.58038 5.48861 2.40211 5.88443C2.24651 6.22586 1.95644 6.45701 1.72227 6.74254C0.616392 8.08561 0 9.89551 0 11.6299C0 15.8524 3.42188 19.2743 7.64447 19.2743C10.8035 19.2743 13.8567 17.2061 14.8372 14.1679C15.2194 12.985 16.206 12.4487 17.3874 12.284C17.8754 12.216 18.3845 12.2583 18.8483 12.077C19.6868 11.7492 20.282 10.9077 20.282 10.0043V8.95128C20.282 8.912 20.2503 8.88027 20.211 8.88027H20.2095ZM12.6239 3.82525C12.6572 3.64547 12.8052 3.49742 12.985 3.46418C13.3098 3.40375 13.5863 3.68022 13.5244 4.00504C13.4911 4.18482 13.3431 4.33287 13.1633 4.36611C12.8385 4.42654 12.562 4.15007 12.6239 3.82525ZM6.27874 5.44177C6.31197 5.26199 6.46003 5.11394 6.63981 5.0807C6.96462 5.02027 7.23958 5.29674 7.17915 5.62155C7.14591 5.80133 6.99786 5.94939 6.81808 5.98263C6.49326 6.04306 6.21679 5.76659 6.27722 5.44177H6.27874ZM16.6683 9.22624C16.635 9.40602 16.487 9.55407 16.3072 9.58731C15.9824 9.64774 15.7059 9.37127 15.7678 9.04646C15.8011 8.86667 15.9491 8.71862 16.1289 8.68538C16.4537 8.62495 16.7302 8.90142 16.6683 9.22624Z" fill="#0B172C"/>
<path id="Vector_7" d="M7.158 3.8343L7.1716 1.8688C6.83621 2.04707 6.15485 2.47159 5.67141 3.29798C5.56263 3.48229 5.47954 3.66359 5.41458 3.8343H7.158Z" fill="#0B172C"/>
<path id="Vector_8" d="M13.5198 2.21779L13.5334 0.252281C13.198 0.430551 12.5167 0.855076 12.0332 1.68146C11.9245 1.86578 11.8414 2.04707 11.7764 2.21779H13.5198Z" fill="#0B172C"/>
</g>
</g>
</svg>
