<svg preserveAspectRatio="xMidYMid meet" width="34" height="32" viewBox="0 0 34 32" fill="none" xmlns="http://www.w3.org/2000/svg">
<g id="Cerbylogo_brief 1" clip-path="url(#clip0_9352_2096)">
<path id="Vector" d="M29.4341 14.7434V14.4148C29.4341 13.5344 28.7067 12.9274 27.8689 12.9349C26.9334 12.9425 25.9953 12.9023 25.0673 13.0378C24.3273 13.1456 23.4846 13.1657 22.8951 13.6874C22.2931 14.2192 22.1151 15.0619 21.9269 15.9549C21.8417 16.3612 21.7539 16.7801 21.6209 17.1864C21.2196 18.428 20.3142 19.4789 19.1855 20.0959C18.4606 20.4922 17.5626 20.0257 17.4322 19.2105C18.7114 19.0049 19.8476 18.0141 20.2565 16.7475C20.3643 16.4114 20.4421 16.0477 20.5248 15.6614C20.7431 14.6305 20.9889 13.4642 21.9445 12.6164C22.7722 11.884 23.7254 11.7686 24.5656 11.6658C25.0045 11.6131 25.4209 11.5629 25.8022 11.4325C26.7804 11.0989 27.573 10.5346 28.0395 9.8448C28.3079 9.27543 28.4559 8.62079 28.4559 7.94607V6.19784C28.4559 6.13262 28.4032 6.07995 28.338 6.07995H24.2195V5.75137C24.2195 4.92616 23.5498 4.25647 22.7246 4.25647H18.7039L18.734 0C18.0818 0.346136 16.7575 1.17134 15.8144 2.77912C15.3353 3.5968 15.0995 4.37435 14.9766 4.9688C14.8061 5.51058 14.776 6.16774 14.628 6.74212C14.7559 6.92271 14.8663 7.12086 14.9516 7.32905H17.8536C18.7114 7.32905 19.4062 8.02383 19.4062 8.88164V10.6299C19.4062 11.6006 19.1202 12.5161 18.6286 13.2961C17.9915 14.2442 16.9431 15.0017 15.6739 15.4331C15.1522 15.6112 14.6405 15.6714 14.1489 15.7316C13.424 15.8194 12.797 15.8947 12.3054 16.3336C11.7034 16.8678 11.5253 17.7081 11.3372 18.601C11.2519 19.0074 11.1641 19.4262 11.0312 19.8326C10.6299 21.0741 9.72441 22.1251 8.5957 22.7421C7.87083 23.1384 6.97288 22.6719 6.84245 21.8567C8.12165 21.651 9.25788 20.6603 9.66672 19.3936C9.77457 19.0575 9.85233 18.6938 9.9351 18.3076C10.1533 17.2767 10.3991 16.1104 11.3548 15.2626C12.1825 14.5302 13.1356 14.4148 13.9784 14.312C14.4173 14.2593 14.8337 14.2091 15.2149 14.0787C16.7901 13.5419 17.9238 12.3806 17.9238 10.6324V8.88415C17.9238 8.81894 17.8711 8.76626 17.8059 8.76626H13.6874V8.43769C13.6874 7.61248 13.0177 6.94278 12.1925 6.94278H8.17181L8.20191 2.68631C7.54977 3.03245 6.22543 3.85766 5.28233 5.46543C4.80326 6.28312 4.56749 7.06067 4.44458 7.65512C4.22888 8.33736 4.28406 9.1124 3.98809 9.76956C3.72974 10.3364 3.24816 10.7202 2.85938 11.1942C1.02336 13.424 0 16.4289 0 19.3084C0 26.3189 5.68114 32 12.6916 32C17.9364 32 23.0055 28.5662 24.6333 23.5222C25.2679 21.5582 26.9058 20.6678 28.8672 20.3944C29.6774 20.2816 30.5227 20.3518 31.2927 20.0508C32.6847 19.5065 33.673 18.1094 33.673 16.6095V14.8613C33.673 14.796 33.6203 14.7434 33.5551 14.7434H29.4341ZM20.9588 6.35084C21.014 6.05236 21.2598 5.80655 21.5582 5.75137C22.0975 5.65104 22.5565 6.11005 22.4537 6.64932C22.3985 6.9478 22.1527 7.1936 21.8542 7.24878C21.3149 7.34911 20.8559 6.89011 20.9588 6.35084ZM10.4242 9.03464C10.4794 8.73617 10.7252 8.49036 11.0237 8.43518C11.5629 8.33485 12.0194 8.79385 11.9191 9.33312C11.8639 9.6316 11.6181 9.87741 11.3196 9.93259C10.7804 10.0329 10.3214 9.57391 10.4217 9.03464H10.4242ZM27.6733 15.3178C27.6181 15.6162 27.3723 15.862 27.0738 15.9172C26.5346 16.0176 26.0756 15.5586 26.1784 15.0193C26.2336 14.7208 26.4794 14.475 26.7779 14.4198C27.3171 14.3195 27.7761 14.7785 27.6733 15.3178Z" fill="rgba(10, 17, 29, 1)"/>
<path id="Vector_2" d="M11.884 6.36573L11.9066 3.10253C11.3498 3.3985 10.2185 4.10331 9.41591 5.47531C9.23532 5.78132 9.09736 6.0823 8.98951 6.36573H11.884Z" fill="rgba(10, 17, 29, 1)"/>
<path id="Vector_3" d="M22.4461 3.6822L22.4687 0.418997C21.9119 0.714968 20.7807 1.41978 19.978 2.79178C19.7975 3.09779 19.6595 3.39877 19.5516 3.6822H22.4461Z" fill="rgba(10, 17, 29, 1)"/>
</g>
<defs>
<clipPath id="clip0_9352_2096">
<rect width="34" height="32" fill="white"/>
</clipPath>
</defs>
</svg>
