<svg preserveAspectRatio="none" width="100%" height="100%" overflow="visible" style="display: block;" viewBox="0 0 16 16" fill="none" xmlns="http://www.w3.org/2000/svg">
<path id="vector" fill-rule="evenodd" clip-rule="evenodd" d="M4.66667 0.75C4.66667 0.335786 5.00245 0 5.41667 0H14.75C15.1642 0 15.5 0.335786 15.5 0.75V11.6389C15.5 12.0531 15.1642 12.3889 14.75 12.3889H10.8333V14.75C10.8333 15.1642 10.4975 15.5 10.0833 15.5H0.75C0.335786 15.5 0 15.1642 0 14.75V3.86111C0 3.4469 0.335786 3.11111 0.75 3.11111H4.66667V0.75ZM6.16667 3.11111H10.0833C10.4975 3.11111 10.8333 3.4469 10.8333 3.86111V10.8889H14V1.5H6.16667V3.11111ZM1.5 4.61111V14H9.33333V4.61111H1.5Z" fill="#4F6489"/>
</svg>
