<svg width="48" height="48" viewBox="0 0 48 48" fill="none" xmlns="http://www.w3.org/2000/svg">
  <!-- Background circle -->
  <circle cx="24" cy="24" r="24" fill="#F8F8F8"/>
  
  <!-- Cerby Logo (centered) -->
  <g id="cerby-logo">
    <path d="M31.2242 31.3624C29.8836 30.978 28.4086 31.2659 27.3945 32.2215C26.7222 32.8515 25.931 33.3014 25.0238 33.4599C23.3245 33.7662 21.3992 33.0438 20.3681 31.6478C20.0175 31.1724 19.7693 30.6289 19.6149 30.0637C19.5393 29.784 19.4811 29.4947 19.4479 29.2028C19.4224 28.9861 19.4336 28.7605 19.4138 28.5406C19.2394 26.806 19.803 24.9764 21.086 23.762C21.2397 23.6162 21.4044 23.4833 21.5723 23.3562C22.7978 22.4612 24.3518 22.2544 25.8165 22.5624C26.5415 22.7168 27.2401 22.9804 27.889 23.332C28.741 23.7905 29.4886 24.4431 30.3889 24.8181C32.016 25.494 33.928 25.2778 35.3754 24.2712C35.9408 23.8784 36.4228 23.369 36.7891 22.7876L38.1045 20.6964C38.1515 20.6174 38.131 20.519 38.0533 20.4675L33.1024 17.3584L33.3522 16.9627C33.9709 15.9765 33.6726 14.6738 32.6774 14.0525L30.7841 12.8621L30.5008 12.6445L33.6675 6.50767C32.306 6.53594 29.4296 6.78712 26.5389 8.65056C26.3543 8.76803 26.1774 8.89257 26.0062 9.01391L28.0268 2.15405C26.3782 2.50412 22.9374 3.4844 19.8586 6.42829C18.2899 7.92592 17.2778 9.4858 16.6338 10.713C15.8111 11.9523 15.4232 13.4916 14.5594 14.7044C13.1845 15.8487 11.9682 17.238 10.9959 18.8629C8.40501 23.1784 8.06459 28.2707 9.63531 32.7426C9.66286 32.8333 9.70071 32.922 9.72955 33.0082C9.7629 33.0957 9.78916 33.1908 9.8283 33.2751C10.5313 34.9324 11.4536 36.4529 12.7214 37.7366C14.0559 39.093 15.7257 40.1804 17.4355 40.992C19.1241 41.7927 20.9558 42.3325 22.7992 42.6274C24.2621 42.857 25.7502 42.9137 27.2206 42.7608C28.5848 42.6213 29.9248 42.2948 31.2007 41.7843C32.4271 41.2937 33.5868 40.6281 34.6322 39.8179C35.6834 39.0044 36.6158 38.0448 37.4075 36.9817C38.1729 35.9596 38.8052 34.841 39.311 33.6715L31.2178 31.3508L31.2242 31.3624ZM30.4803 16.5871C30.0767 17.2308 29.2228 17.4242 28.57 17.0179C27.9231 16.6084 27.7239 15.7578 28.1289 15.1095C28.5326 14.4658 29.3865 14.2724 30.0392 14.6787C30.6862 15.0882 30.8853 15.9388 30.4803 16.5871Z" fill="#0A111D"/>
  </g>
  
  <!-- Purple Badge (bottom right corner) -->
  <g id="badge" transform="translate(27, 27)">
    <circle cx="10.5" cy="10.5" r="10.5" fill="#A36BDB"/>
    <circle cx="10.5" cy="10.5" r="10.5" fill="none" stroke="white" stroke-width="1.21818"/>
  </g>
</svg>
