<svg preserveAspectRatio="none" width="100%" height="100%" overflow="visible" style="display: block;" viewBox="0 0 17 17" fill="none" xmlns="http://www.w3.org/2000/svg">
<path id="vector (Stroke)" fill-rule="evenodd" clip-rule="evenodd" d="M5.03572 1.5C4.8582 1.5 4.71429 1.64391 4.71429 1.82143V9.32144C4.71429 9.49896 4.8582 9.64287 5.03572 9.64287H14.6786C14.8561 9.64287 15 9.49896 15 9.32144V3.96429C15 3.78677 14.8561 3.64286 14.6786 3.64286H10.0822L7.93935 1.5H5.03572ZM11.7857 11.1429H5.03572C4.02977 11.1429 3.21429 10.3274 3.21429 9.32144V6.85715H1.82143C1.64391 6.85715 1.5 7.00106 1.5 7.17858V14.6786C1.5 14.8561 1.64391 15 1.82143 15H11.4643C11.6418 15 11.7857 14.8561 11.7857 14.6786V11.1429ZM3.21429 5.35715H1.82143C0.815482 5.35715 0 6.17263 0 7.17858V14.6786C0 15.6845 0.815482 16.5 1.82143 16.5H11.4643C12.4702 16.5 13.2857 15.6845 13.2857 14.6786V11.1429H14.6786C15.6845 11.1429 16.5 10.3274 16.5 9.32144V3.96429C16.5 2.95834 15.6845 2.14286 14.6786 2.14286H10.7035L8.56067 0H5.03572C4.02977 0 3.21429 0.815482 3.21429 1.82143V5.35715Z" fill="#4F6489"/>
</svg>

