<svg preserveAspectRatio="none" width="100%" height="100%" overflow="visible" style="display: block;" viewBox="0 0 15 15" fill="none" xmlns="http://www.w3.org/2000/svg">
<path id="Vector" fill-rule="evenodd" clip-rule="evenodd" d="M6.66291 8.83662V0.75C6.66291 0.335786 6.9987 0 7.41291 0C7.82713 0 8.16291 0.335787 8.16291 0.75V8.73895L9.68371 7.21816C9.9766 6.92526 10.4515 6.92526 10.7444 7.21816C11.0373 7.51105 11.0373 7.98592 10.7444 8.27882L7.94324 11.0799C7.6586 11.3646 7.2 11.3738 6.9042 11.1007L3.84623 8.27797C3.54186 7.99702 3.52288 7.52252 3.80384 7.21816C4.08479 6.91379 4.55928 6.89481 4.86365 7.17576L6.66291 8.83662ZM1.5 13.1311V7.41291C1.5 6.9987 1.16421 6.66291 0.75 6.66291C0.335786 6.66291 0 6.9987 0 7.41291V13.8811C0 14.2953 0.335786 14.6311 0.75 14.6311H14.0758C14.49 14.6311 14.8258 14.2953 14.8258 13.8811V7.41291C14.8258 6.9987 14.49 6.66291 14.0758 6.66291C13.6616 6.66291 13.3258 6.9987 13.3258 7.41291V13.1311H1.5Z" fill="#4F6489"/>
</svg>
