<svg preserveAspectRatio="none" width="100%" height="100%" overflow="visible" style="display: block;" viewBox="0 0 12 12" fill="none" xmlns="http://www.w3.org/2000/svg">
<path id="Vector" fill-rule="evenodd" clip-rule="evenodd" d="M6 12C9.31371 12 12 9.31371 12 6C12 2.68629 9.31371 0 6 0C2.68629 0 0 2.68629 0 6C0 9.31371 2.68629 12 6 12ZM8.89064 3.8121C9.063 3.59636 9.02784 3.28173 8.8121 3.10937C8.59636 2.937 8.28173 2.97217 8.10937 3.18791L4.87477 7.23651L3.86495 6.15823C3.67619 5.95667 3.35978 5.9463 3.15822 6.13505C2.95667 6.32381 2.94629 6.64023 3.13505 6.84178L4.53981 8.34178C4.63902 8.44772 4.77937 8.50532 4.92439 8.49962C5.06941 8.49392 5.20481 8.42549 5.2954 8.3121L8.89064 3.8121Z" fill="#1F2F4D"/>
</svg>
