<svg preserveAspectRatio="none" width="100%" height="100%" overflow="visible" style="display: block;" viewBox="0 0 15 15" fill="none" xmlns="http://www.w3.org/2000/svg">
<path id="vector" fill-rule="evenodd" clip-rule="evenodd" d="M0 0.75C0 0.335786 0.335786 0 0.75 0H4.91667C5.33088 0 5.66667 0.335786 5.66667 0.75C5.66667 1.16421 5.33088 1.5 4.91667 1.5H1.5V13.3333H13.3333V9.91667C13.3333 9.50245 13.6691 9.16667 14.0833 9.16667C14.4975 9.16667 14.8333 9.50245 14.8333 9.91667V14.0833C14.8333 14.4975 14.4975 14.8333 14.0833 14.8333H0.75C0.335786 14.8333 0 14.4975 0 14.0833V0.75ZM7.5 0.75C7.5 0.335786 7.83579 0 8.25 0H14.0833C14.4975 0 14.8333 0.335786 14.8333 0.75V6.58333C14.8333 6.99755 14.4975 7.33333 14.0833 7.33333C13.6691 7.33333 13.3333 6.99755 13.3333 6.58333V2.56066L4.61366 11.2803C4.32077 11.5732 3.8459 11.5732 3.553 11.2803C3.26011 10.9874 3.26011 10.5126 3.553 10.2197L12.2727 1.5H8.25C7.83579 1.5 7.5 1.16421 7.5 0.75Z" fill="#4F6489"/>
</svg>
