<svg preserveAspectRatio="none" width="100%" height="100%" overflow="visible" style="display: block;" viewBox="0 0 20 20" fill="none" xmlns="http://www.w3.org/2000/svg">
<g id="PasswordGenerator">
  <!-- Union part (refresh arrows) - 15x15 viewBox, scaled to fit 14.386x14.386 area at position (2.5, 2.5) -->
  <g id="Union" transform="translate(2.5, 2.5) scale(0.9591)">
    <path d="M13.226 5.31881C13.8728 5.53418 14.6072 5.00284 14.3236 4.38295C13.1403 1.79677 10.53 0 7.5 0C5.57891 0 3.82629 0.722922 2.49998 1.90983L2.49997 0.833325C2.49996 0.373088 2.12686 -4.17215e-06 1.66663 0C1.20639 6.40767e-06 0.833297 0.373107 0.833302 0.833344L0.83334 4.16668C0.833345 4.62691 1.20644 5 1.66667 5L4.99997 5C5.46021 5 5.8333 4.6269 5.8333 4.16667C5.8333 3.70643 5.46021 3.33333 4.99997 3.33333H3.41746C4.47033 2.30143 5.91083 1.66667 7.5 1.66667C9.77783 1.66667 11.7507 2.97224 12.7112 4.87589C12.8164 5.08434 13.0045 5.24504 13.226 5.31881Z" fill="#1F2F4D"/>
    <path d="M5.31881 13.226C5.24504 13.0045 5.08434 12.8164 4.87589 12.7112C2.97224 11.7507 1.66667 9.77783 1.66667 7.5C1.66667 7.03976 1.29357 6.66667 0.833333 6.66667C0.373096 6.66667 0 7.03976 0 7.5C0 10.53 1.79677 13.1403 4.38295 14.3236C5.00284 14.6072 5.53418 13.8728 5.31881 13.226Z" fill="#1F2F4D"/>
  </g>
  <!-- Asterisk part - 7x8 viewBox, scaled to fit 7.194x7.194 area at position (3.114, 9.692) -->
  <g id="Asterisk" transform="translate(3.114, 9.692) scale(1.0276)">
    <path d="M3.15374 7.1936C2.98357 7.1936 2.84746 7.0522 2.85396 6.88215L2.94708 4.44605L0.76285 5.76438C0.620783 5.85013 0.436091 5.80426 0.350651 5.662L0.0428947 5.14961C-0.0473525 4.99936 0.00988363 4.80406 0.16696 4.72629L2.44825 3.5968L0.16696 2.46731C0.00988367 2.38954 -0.0473524 2.19425 0.0428948 2.04399L0.350651 1.5316C0.436091 1.38935 0.620783 1.34348 0.76285 1.42922L2.94708 2.74756L2.85396 0.311458C2.84746 0.141403 2.98357 0 3.15374 0H3.79057C3.96075 0 4.09685 0.141403 4.09035 0.311458L3.99724 2.74756L6.18146 1.42922C6.32353 1.34348 6.50822 1.38935 6.59366 1.5316L6.90142 2.04399C6.99166 2.19425 6.93443 2.38954 6.77735 2.46731L4.49606 3.5968L6.77735 4.72629C6.93443 4.80406 6.99166 4.99936 6.90142 5.14961L6.59366 5.662C6.50822 5.80426 6.32353 5.85013 6.18146 5.76438L3.99724 4.44605L4.09035 6.88215C4.09685 7.0522 3.96075 7.1936 3.79057 7.1936H3.15374Z" fill="#1F2F4D"/>
  </g>
</g>
</svg>
