<svg preserveAspectRatio="none" width="100%" height="100%" overflow="visible" style="display: block;" viewBox="0 0 16 16" fill="none" xmlns="http://www.w3.org/2000/svg">
<g id="Vector">
<path fill-rule="evenodd" clip-rule="evenodd" d="M3.74402 5.18391C2.94873 5.18391 2.30402 4.5392 2.30402 3.74391C2.30402 2.94862 2.94873 2.30391 3.74402 2.30391C4.53931 2.30391 5.18402 2.94862 5.18402 3.74391C5.18402 4.5392 4.53931 5.18391 3.74402 5.18391ZM3.74402 4.22391C3.47893 4.22391 3.26402 4.009 3.26402 3.74391C3.26402 3.47881 3.47893 3.26391 3.74402 3.26391C4.00912 3.26391 4.22402 3.47881 4.22402 3.74391C4.22402 4.009 4.00912 4.22391 3.74402 4.22391Z" fill="#E8D1F6"/>
<path fill-rule="evenodd" clip-rule="evenodd" d="M14.8636 14.7701C15.5565 14.0176 15.5195 12.8353 14.781 12.1294L8.36518 5.9957C8.55179 5.50285 8.65398 4.9676 8.65398 4.40905C8.65398 1.974 6.71672 1.04458e-07 4.32699 0C1.93726 -1.04458e-07 1.0644e-07 1.974 0 4.40905C-1.0644e-07 6.84411 1.93726 8.81811 4.32699 8.81811C4.81194 8.81811 5.27913 8.7366 5.7155 8.58603L7.14366 9.95137C6.61009 10.5835 6.60978 11.5365 7.17353 12.1702C7.78413 12.8566 8.82519 12.9087 9.49882 12.2865L9.54328 12.2454L9.92133 12.6069C9.46415 13.2171 9.48401 14.0919 10.0086 14.6817C10.5917 15.3372 11.5808 15.3955 12.2339 14.8178L12.2721 14.8542C13.0105 15.5602 14.1708 15.5225 14.8636 14.7701ZM14.0087 12.9682C14.2925 13.2395 14.3067 13.6939 14.0404 13.9831C13.7742 14.2723 13.3282 14.2867 13.0444 14.0154L12.5753 13.5669C12.3927 13.3923 12.106 13.3892 11.9196 13.5598L11.5002 13.9435C11.3098 14.1178 11.0169 14.1025 10.845 13.9092C10.6719 13.7147 10.6871 13.4139 10.8788 13.2385C11.2374 12.8143 11.1986 12.1829 10.7906 11.8059L10.3658 11.4132C9.90469 10.987 9.19066 10.9963 8.74074 11.4343C8.52901 11.6299 8.20179 11.6135 8.00987 11.3978C7.81795 11.182 7.83402 10.8486 8.04575 10.653L8.42406 10.3036C8.62742 10.1158 8.63017 9.79534 8.43008 9.60404L6.22742 7.49827C6.0638 7.34185 5.82172 7.30018 5.61522 7.39291C5.22184 7.56955 4.78643 7.66792 4.32699 7.66792C2.56066 7.66792 1.12878 6.20887 1.12878 4.40905C1.12878 2.60923 2.56066 1.15019 4.32699 1.15019C6.09331 1.15019 7.5252 2.60923 7.5252 4.40905C7.5252 4.93816 7.40187 5.43625 7.18343 5.87667C7.07006 6.10524 7.11845 6.38098 7.30287 6.55729L14.0087 12.9682Z" fill="#E8D1F6"/>
</g>
</svg>
