<svg preserveAspectRatio="none" width="100%" height="100%" overflow="visible" style="display: block;" viewBox="0 0 17 17" fill="none" xmlns="http://www.w3.org/2000/svg">
<path id="vector" fill-rule="evenodd" clip-rule="evenodd" d="M5.94752 0.75C5.94752 0.335786 6.2833 0 6.69752 0H9.80301C10.2172 0 10.553 0.335786 10.553 0.75V2.67997C11.1011 2.8934 11.6106 3.18078 12.0682 3.52962L13.8319 2.54593C14.1861 2.34843 14.633 2.46813 14.841 2.81618L16.3938 5.41426C16.4978 5.58834 16.5269 5.79714 16.4745 5.99304C16.422 6.18894 16.2924 6.35524 16.1153 6.45403L14.3764 7.42392C14.4148 7.69422 14.4346 7.97002 14.4346 8.25C14.4346 8.52998 14.4148 8.8058 14.3764 9.07611L16.1153 10.046C16.2924 10.1447 16.4219 10.3111 16.4744 10.507C16.5269 10.7029 16.4978 10.9117 16.3937 11.0857L14.841 13.6838C14.633 14.0319 14.186 14.1516 13.8319 13.9541L12.0682 12.9704C11.6105 13.3192 11.1011 13.6066 10.553 13.82V15.75C10.553 16.1642 10.2172 16.5 9.80301 16.5H6.69752C6.2833 16.5 5.94752 16.1642 5.94752 15.75V13.8203C5.39925 13.6068 4.88957 13.3194 4.43175 12.9704L2.66815 13.954C2.31403 14.1515 1.86705 14.0318 1.65904 13.6838L0.106291 11.0857C0.00224941 10.9116 -0.0268576 10.7028 0.0256067 10.5069C0.078071 10.311 0.207634 10.1447 0.384752 10.0459L2.12359 9.07612C2.08518 8.8058 2.06536 8.52999 2.06536 8.25C2.06536 7.97002 2.08518 7.69422 2.12359 7.42391L0.384678 6.45406C0.20756 6.35527 0.0779971 6.18897 0.0255328 5.99307C-0.0269315 5.79717 0.0021755 5.58837 0.106217 5.41429L1.65896 2.81621C1.86698 2.46816 2.31395 2.34846 2.66807 2.54596L4.43172 3.52961C4.88955 3.18065 5.39924 2.8932 5.94752 2.67974V0.75ZM7.44752 1.5V3.21732C7.44752 3.55174 7.22611 3.84575 6.90471 3.93814C6.19 4.14358 5.54773 4.50857 5.02193 4.98904C4.7836 5.20683 4.43264 5.24766 4.15068 5.0904L2.57312 4.21054L1.79024 5.52046L3.32748 6.37784C3.62248 6.54237 3.7711 6.8838 3.69049 7.21183C3.60876 7.54443 3.56536 7.89188 3.56536 8.25C3.56536 8.60813 3.60876 8.95559 3.6905 9.2882C3.77111 9.61622 3.62249 9.95765 3.32749 10.1222L1.79031 10.9795L2.57319 12.2895L4.1507 11.4096C4.43266 11.2524 4.78362 11.2932 5.02196 11.511C5.54775 11.9914 6.19001 12.3564 6.90471 12.5619C7.22611 12.6542 7.44752 12.9483 7.44752 13.2827V15H9.05301V13.2825C9.05301 12.9481 9.27438 12.6541 9.59574 12.5617C10.3102 12.3562 10.9523 11.9913 11.478 11.511C11.7163 11.2932 12.0673 11.2524 12.3492 11.4096L13.9268 12.2895L14.7097 10.9796L13.1725 10.1222C12.8775 9.95765 12.7288 9.61622 12.8094 9.28819C12.8912 8.95559 12.9346 8.60813 12.9346 8.25C12.9346 7.89188 12.8912 7.54443 12.8095 7.21183C12.7288 6.88381 12.8775 6.54238 13.1725 6.37785L14.7098 5.52043L13.9269 4.21051L12.3493 5.0904C12.0673 5.24766 11.7163 5.20683 11.478 4.98904C10.9523 4.50868 10.3102 4.14375 9.59574 3.93828C9.27438 3.84587 9.05301 3.55188 9.05301 3.21749V1.5H7.44752ZM8.25 7.33333C7.74374 7.33333 7.33334 7.74374 7.33334 8.25C7.33334 8.75626 7.74374 9.16667 8.25 9.16667C8.75626 9.16667 9.16667 8.75626 9.16667 8.25C9.16667 7.74374 8.75626 7.33333 8.25 7.33333ZM5.83334 8.25C5.83334 6.91531 6.91531 5.83333 8.25 5.83333C9.58469 5.83333 10.6667 6.91531 10.6667 8.25C10.6667 9.58469 9.58469 10.6667 8.25 10.6667C6.91531 10.6667 5.83334 9.58469 5.83334 8.25Z" fill="#1F2F4D"/>
</svg>

