<svg preserveAspectRatio="none" width="100%" height="100%" overflow="visible" style="display: block;" viewBox="0 0 17 13" fill="none" xmlns="http://www.w3.org/2000/svg">
<path id="vector" fill-rule="evenodd" clip-rule="evenodd" d="M4.25 0C4.66422 0 5 0.335786 5 0.75V9.81896L7.19662 7.41769C7.4762 7.11206 7.9506 7.09095 8.25623 7.37053C8.56186 7.65011 8.58297 8.12451 8.30339 8.43014L4.80339 12.2562C4.66131 12.4115 4.4605 12.5 4.25 12.5C4.03951 12.5 3.8387 12.4115 3.69662 12.2562L0.196617 8.43014C-0.0829624 8.12451 -0.0618465 7.65011 0.243781 7.37053C0.549408 7.09095 1.02381 7.11206 1.30339 7.41769L3.5 9.81896V0.75C3.5 0.335786 3.83579 0 4.25 0ZM12.25 0C12.4605 0 12.6613 0.0884599 12.8034 0.243776L16.3034 4.06986C16.583 4.37549 16.5619 4.84989 16.2562 5.12947C15.9506 5.40905 15.4762 5.38794 15.1966 5.08231L13 2.68105V11.75C13 12.1642 12.6642 12.5 12.25 12.5C11.8358 12.5 11.5 12.1642 11.5 11.75V2.68105L9.30339 5.08231C9.02381 5.38794 8.54941 5.40905 8.24378 5.12947C7.93815 4.84989 7.91704 4.37549 8.19662 4.06986L11.6966 0.243776C11.8387 0.0884599 12.0395 0 12.25 0Z" fill="#4F6489"/>
</svg>
