<svg preserveAspectRatio="none" width="100%" height="100%" overflow="visible" style="display: block;" viewBox="0 0 12 12" fill="none" xmlns="http://www.w3.org/2000/svg">
<path id="Subtract" d="M6 0C9.31351 0.000230889 12 2.68643 12 6C12 9.31357 9.31351 11.9998 6 12C2.68629 12 0 9.31371 0 6C0 2.68629 2.68629 0 6 0ZM6.08008 2C4.51644 2 3.16306 2.89683 2.50488 4.2041L2.40625 4.41504C2.19076 4.91476 2.07986 5.45415 2.08008 6C2.08008 6.5647 2.19816 7.10335 2.40918 7.59082L2.50488 7.7959L2.63672 8.03711C3.33345 9.21249 4.61436 10 6.08008 10C7.09226 9.99992 7.95097 9.68508 8.59961 9.14258L8.72754 9.03125C9.48375 8.33491 9.91892 7.30884 9.91895 6.09082C9.91893 5.80748 9.89387 5.53501 9.84668 5.27344H6.08008V6.82031H8.23242C8.15127 7.25743 7.92554 7.63624 7.58691 7.91406L7.43457 8.02734C7.07647 8.26729 6.61809 8.40911 6.08008 8.40918C5.10347 8.40918 4.26716 7.79077 3.90723 6.93457L3.84082 6.75977C3.76093 6.51991 3.71582 6.26345 3.71582 6C3.71582 5.80237 3.74159 5.60848 3.78809 5.42285L3.84082 5.24023C4.15539 4.29483 5.03829 3.59082 6.08008 3.59082C6.66718 3.59091 7.19493 3.79223 7.60938 4.18848L8.75586 3.04199C8.06326 2.39679 7.15792 2.00009 6.08008 2Z" fill="#F8F8F8"/>
</svg>
