<svg preserveAspectRatio="none" width="100%" height="100%" overflow="visible" style="display: block;" viewBox="0 0 17 14" fill="none" xmlns="http://www.w3.org/2000/svg">
<path id="vector" fill-rule="evenodd" clip-rule="evenodd" d="M1.5283 6.58333C2.07289 8.40998 4.08551 11.6667 8.25 11.6667C12.4145 11.6667 14.4271 8.40998 14.9717 6.58333C14.4271 4.75669 12.4145 1.5 8.25 1.5C4.08551 1.5 2.07289 4.75669 1.5283 6.58333ZM0.0236303 6.39655C0.565687 4.28856 2.96061 0 8.25 0C13.5394 0 15.9343 4.28856 16.4764 6.39655C16.5079 6.51908 16.5079 6.64759 16.4764 6.77011C15.9343 8.87811 13.5394 13.1667 8.25 13.1667C2.96061 13.1667 0.565687 8.87811 0.0236303 6.77011C-0.00787677 6.64759 -0.00787677 6.51908 0.0236303 6.39655ZM8.25 4.83333C7.2835 4.83333 6.5 5.61684 6.5 6.58333C6.5 7.54983 7.2835 8.33333 8.25 8.33333C9.2165 8.33333 10 7.54983 10 6.58333C10 5.61684 9.2165 4.83333 8.25 4.83333ZM5 6.58333C5 4.78841 6.45507 3.33333 8.25 3.33333C10.0449 3.33333 11.5 4.78841 11.5 6.58333C11.5 8.37826 10.0449 9.83333 8.25 9.83333C6.45507 9.83333 5 8.37826 5 6.58333Z" fill="#4F6489"/>
</svg>
