<svg preserveAspectRatio="none" width="100%" height="100%" overflow="visible" style="display: block;" viewBox="0 0 18 18" fill="none" xmlns="http://www.w3.org/2000/svg">
<circle cx="9" cy="9" r="8.25" fill="#F5D471" stroke="#FFFFFF" stroke-width="1.5"/>
<path id="vector" d="M8.75 4C8.33579 4 8 4.33579 8 4.75V8.75C8 9.16421 8.33579 9.5 8.75 9.5C9.16421 9.5 9.5 9.16421 9.5 8.75V4.75C9.5 4.33579 9.16421 4 8.75 4ZM8.75 11.75C8.33579 11.75 8 12.0858 8 12.5V12.75C8 13.1642 8.33579 13.5 8.75 13.5C9.16421 13.5 9.5 13.1642 9.5 12.75V12.5C9.5 12.0858 9.16421 11.75 8.75 11.75Z" fill="#0a111d"/>
</svg>
